<svg width="68" height="69" viewBox="0 0 68 69" fill="none" xmlns="http://www.w3.org/2000/svg">
<path d="M53.9022 2.95524C57.4857 2.95524 61.1333 2.95524 64.7169 2.95524C65.4208 2.95524 65.4847 3.08323 65.4847 3.78714C65.4847 6.41081 65.4847 9.03448 65.4847 11.6582C65.4847 13.066 65.4847 14.4738 65.4847 15.8816C65.4847 16.5855 65.9967 17.0975 66.6366 17.0975C67.3405 17.0975 67.8524 16.5855 67.8524 15.8176C67.8524 13.7699 67.8524 11.7221 67.8524 9.6744C67.8524 7.62665 67.8524 5.6429 67.8524 3.59516C67.8524 1.80339 66.5726 0.58754 64.8448 0.58754C63.245 0.58754 61.6452 0.58754 60.1094 0.58754C57.9977 0.58754 55.9499 0.58754 53.8382 0.58754C52.9423 0.58754 52.3664 1.29145 52.6224 2.05936C52.7503 2.63528 53.2623 2.95524 53.9022 2.95524Z" fill="#838383"/>
<path d="M1.42865 16.8415C2.13256 16.8415 2.6445 16.3296 2.6445 15.4977C2.6445 11.5942 2.6445 7.69066 2.6445 3.85114C2.6445 3.08323 2.77249 3.01925 3.4764 3.01925C6.86798 3.01925 10.1956 3.01925 13.5871 3.01925C13.9071 3.01925 14.291 2.89126 14.547 2.76328C14.931 2.50731 15.0589 1.99537 14.931 1.54743C14.739 1.03549 14.355 0.71553 13.7151 0.71553C10.1956 0.71553 6.676 0.71553 3.15644 0.71553C2.90047 0.71553 2.6445 0.779525 2.38853 0.843517C1.10869 1.22747 0.34078 2.37932 0.34078 3.78715C0.34078 5.7709 0.34078 7.69066 0.34078 9.67441C0.34078 11.6582 0.34078 13.7059 0.34078 15.6897C0.276788 16.3296 0.72474 16.8415 1.42865 16.8415Z" fill="#838383"/>
<path d="M13.2032 65.9233C9.93963 65.9233 6.67605 65.9233 3.41246 65.9233C2.77254 65.9233 2.64455 65.7954 2.64455 65.1554C2.64455 63.2997 2.64455 61.4439 2.64455 59.5881C2.64455 57.7324 2.64455 55.8126 2.64455 53.9568C2.64455 53.2529 2.13262 52.741 1.4927 52.741C0.788787 52.741 0.276855 53.2529 0.276855 53.9568C0.276855 57.7324 0.276855 61.5719 0.276855 65.3474C0.276855 67.0752 1.55668 68.291 3.28447 68.291C4.75628 68.291 6.16412 68.291 7.63593 68.291C9.55569 68.291 11.4115 68.291 13.3312 68.291C14.1631 68.291 14.739 67.5871 14.5471 66.8192C14.3551 66.2433 13.9071 65.9233 13.2032 65.9233Z" fill="#838383"/>
<path d="M67.9162 53.4449C67.9162 52.677 67.4043 52.1011 66.6364 52.1651C65.9965 52.1651 65.5485 52.741 65.5485 53.5089C65.5485 57.4124 65.5485 61.3159 65.5485 65.1554C65.5485 65.7954 65.4205 65.9233 64.7806 65.9233C62.2849 65.9233 59.7892 65.9233 57.3575 65.9233C56.8456 65.9233 56.3977 66.1153 56.1417 66.5633C55.6937 67.3952 56.2697 68.291 57.2935 68.291C59.9172 68.291 62.4769 68.291 65.1006 68.291C65.3565 68.291 65.6125 68.2271 65.8685 68.1631C67.1483 67.7791 67.9802 66.6273 67.9802 65.2194C67.9802 63.2997 67.9802 61.3159 67.9802 59.3962C67.9162 57.4124 67.9162 55.4287 67.9162 53.4449Z" fill="#838383"/>
<path d="M57.2297 39.4947C56.9097 38.0229 56.1418 36.871 54.734 36.2951C54.542 36.2311 54.3501 36.1671 54.1581 36.1031C54.1581 36.0391 54.2221 35.9751 54.2221 35.9111C55.5659 32.5196 56.4618 29.064 56.7178 25.4164C56.9098 22.3448 56.5898 19.3372 55.4379 16.4576C52.8783 10.3143 48.2708 6.41083 41.8716 4.61905C39.312 3.85115 36.6243 3.72316 34.0006 4.17111C30.673 4.74703 27.7934 6.28284 25.2977 8.45857C25.1057 8.58655 24.8498 8.71453 24.6578 8.71453C23.4419 8.90651 22.2261 8.9705 21.0103 9.29046C16.7868 10.3783 13.7792 12.874 12.1154 16.9055C10.7715 20.1691 10.5796 23.6247 10.9635 27.0802C11.2835 29.8959 12.1794 32.4556 13.6512 34.8873C13.9071 35.3352 14.2271 35.8471 14.5471 36.2951C14.4831 36.3591 14.4191 36.3591 14.3551 36.4231C13.3952 36.871 12.7553 37.6389 12.3713 38.5988C11.8594 39.8146 11.8594 41.0945 11.9874 42.3743C12.1794 44.1661 12.8193 46.7898 14.4831 47.7496C15.059 48.0696 15.7629 48.2616 16.2748 48.7095C16.8508 49.2215 17.0428 50.1173 17.2347 50.8853C18.5786 56.1326 21.6502 60.804 26.6415 63.1717C32.0809 65.7314 38.992 65.4754 44.1753 62.4678C45.9031 61.5079 47.3749 60.1641 48.6548 58.6283C49.8066 57.2205 50.7025 55.6207 51.3424 53.9569C51.7264 52.933 51.9824 51.9731 52.2383 50.9492C52.4303 50.0534 52.6863 49.0295 53.5182 48.5175C53.9021 48.2616 54.3501 48.1976 54.734 48.0056C55.118 47.8136 55.5019 47.4937 55.8219 47.1737C56.5258 46.1498 56.9737 45.7019 57.2937 44.1021C57.4217 42.5023 57.5497 41.0305 57.2297 39.4947ZM13.1392 25.8004C13.0112 23.3687 13.1392 21.001 13.9071 18.6973C15.187 14.6658 18.0026 12.3621 22.0341 11.4662C22.994 11.2742 23.9539 11.2102 24.9777 11.1462C25.6177 11.1462 26.0656 10.9543 26.5136 10.5063C27.9214 9.16248 29.5212 8.07462 31.3769 7.3707C34.5125 6.02687 37.7761 5.96288 41.0397 6.85877C45.9031 8.13861 49.6147 10.8903 52.1743 15.2417C53.3902 17.3535 54.0941 19.6572 54.2861 22.1528C54.606 26.1843 53.8381 30.0239 52.4943 33.7994C52.4943 33.8634 52.4303 33.9274 52.3663 34.0554C52.1103 32.5196 51.7264 31.1117 51.0865 29.7679C49.9986 27.4002 48.4628 25.4804 46.0311 24.3926C44.8153 23.8806 43.5354 23.5607 42.2556 23.4967C39.5039 23.4327 36.8163 23.3047 34.1286 22.7288C31.9529 22.2808 29.8411 21.6409 27.9214 20.4251C27.0255 19.8491 26.2576 19.2092 25.6817 18.3773C25.2337 17.7374 24.5298 17.5454 23.8259 17.8654C22.0981 18.5693 20.6903 19.7212 19.5384 21.193C18.0026 23.1767 17.1067 25.4164 16.5948 27.8481C16.1469 29.9599 16.0189 32.0716 16.0829 34.2473C16.0829 34.3753 16.0829 34.5033 16.0829 34.5673C16.0829 34.5673 16.0829 34.6313 16.0189 34.6953C15.9549 34.6313 15.8909 34.5033 15.8269 34.4393C14.2911 31.7516 13.3312 28.872 13.1392 25.8004ZM55.054 41.7344C54.926 42.6303 54.862 43.5902 54.542 44.4861L54.606 44.4221C54.35 44.614 54.2221 45.126 53.9661 45.3819C53.1982 46.3418 52.0464 46.7898 51.0225 47.4297C50.8305 47.5577 50.6385 47.6217 50.5106 47.8136C50.3186 48.0056 50.2546 48.3256 50.1906 48.5815C49.6147 50.9492 48.9747 53.4449 47.7589 55.6207C47.7589 55.6207 47.7589 55.6847 47.6949 55.6847C46.991 56.8365 45.3912 58.7563 43.8554 59.8441C43.5354 60.0361 43.2794 60.2281 42.9595 60.4201C40.5918 61.9559 37.3282 62.5958 34.5126 62.5958C31.5049 62.5958 28.4333 61.6999 25.8736 60.1641C24.0179 59.0762 22.5461 57.2205 21.3942 55.4287C20.3703 53.7649 19.9224 51.8451 19.4744 49.9894C19.3465 49.3494 19.2185 48.6455 18.9625 48.0056C18.7065 47.3017 17.8107 47.1737 17.2347 46.7898C16.5308 46.3418 15.8269 45.9579 15.123 45.4459C14.931 45.19 14.675 44.87 14.5471 44.4861C14.5471 44.4221 14.4831 44.3581 14.4831 44.3581C14.4831 44.2941 14.4191 44.1661 14.4191 43.9741C14.1631 42.6943 13.9071 41.3504 14.2271 40.0066C14.4191 39.2387 14.739 38.5988 15.6349 38.4708C15.8269 38.4708 16.0189 38.4708 16.1469 38.5988C16.7228 39.0467 17.3627 39.1747 17.9386 38.8548C18.5146 38.5348 18.7705 37.8949 18.7065 37.191C18.3226 33.6074 18.3226 30.0239 19.4105 26.5683C20.0504 24.4566 21.1382 22.6008 22.866 21.193C23.25 20.873 23.6979 20.617 24.0819 20.3611C24.7858 20.937 25.3617 21.5769 26.0656 22.0249C28.1134 23.4967 30.4811 24.3286 32.9767 24.9045C35.8564 25.5444 38.8 25.8004 41.7436 25.8004C44.6873 25.8644 46.991 27.0802 48.4628 29.7679C49.0387 30.8558 49.4867 31.9436 49.8066 33.1595C50.1906 34.6953 50.2546 36.2311 50.2546 37.7669C50.2546 38.8548 51.3424 39.5587 52.3023 39.1747C52.5583 39.0467 52.8143 38.8548 52.9422 38.6628C53.0702 38.4708 53.2622 38.4068 53.4542 38.4708C54.0941 38.5988 54.542 38.9827 54.734 39.6227C55.054 40.1986 55.1819 40.9665 55.054 41.7344Z" fill="#838383"/>
<path d="M25.2976 48.5175C25.6815 48.5175 26.0655 48.7735 26.2575 49.1575C27.0254 50.8213 29.585 55.3007 34.5764 55.3007C39.5678 55.3007 41.9995 50.6293 42.7674 48.8375C42.9594 48.4536 43.3433 48.1976 43.7273 48.1976C44.4312 48.1976 45.0071 48.9015 44.6872 49.6054C43.6633 52.1651 40.9116 57.4124 34.5124 57.4124C28.2412 57.4124 25.2336 52.549 24.0817 49.9894C23.7618 49.2855 24.2737 48.5175 25.0416 48.5175H25.2976Z" fill="#838383"/>
<path d="M38.672 41.7984H38.608C38.0961 41.7344 37.7122 41.2864 37.7122 40.7745C37.8401 39.1107 38.992 35.9111 42.2556 35.9111C45.5192 35.9111 46.607 39.1107 46.671 40.7745C46.671 41.2864 46.2871 41.7344 45.7751 41.7984C45.2632 41.7984 44.8153 41.4144 44.7513 40.9025C44.7513 40.7745 44.4953 37.8309 42.2556 37.8309C39.9519 37.8309 39.6319 40.7745 39.6319 40.9025C39.6319 41.4144 39.184 41.7984 38.672 41.7984Z" fill="#838383"/>
<path d="M31.1211 41.7984C30.6091 41.7984 30.2252 41.4144 30.1612 40.9025C30.1612 40.7745 29.9052 37.8309 27.6655 37.8309C25.3618 37.8309 25.0418 40.7745 25.0418 40.9025C24.9778 41.4144 24.5299 41.7984 24.018 41.7344C23.506 41.6704 23.1221 41.2224 23.1221 40.7105C23.2501 39.0467 24.4019 35.8471 27.6655 35.8471C30.9291 35.8471 32.017 39.0467 32.0809 40.7105C32.0809 41.2864 31.697 41.7344 31.1211 41.7984Z" fill="#838383"/>
</svg>
