<svg width="69" height="69" viewBox="0 0 69 69" fill="none" xmlns="http://www.w3.org/2000/svg">
<path d="M54.2054 2.95524C57.789 2.95524 61.4365 2.95524 65.0201 2.95524C65.724 2.95524 65.788 3.08323 65.788 3.78714C65.788 6.41081 65.788 9.03448 65.788 11.6582C65.788 13.066 65.788 14.4738 65.788 15.8816C65.788 16.5855 66.2999 17.0975 66.9398 17.0975C67.6437 17.0975 68.1557 16.5855 68.1557 15.8176C68.1557 13.7699 68.1557 11.7221 68.1557 9.6744C68.1557 7.62665 68.1557 5.6429 68.1557 3.59516C68.1557 1.80339 66.8758 0.58754 65.148 0.58754C63.5482 0.58754 61.9484 0.58754 60.4126 0.58754C58.3009 0.58754 56.2532 0.58754 54.1414 0.58754C53.2455 0.58754 52.6696 1.29145 52.9256 2.05936C53.0536 2.63528 53.5655 2.95524 54.2054 2.95524Z" fill="#838383"/>
<path d="M1.73211 16.8415C2.43602 16.8415 2.94796 16.3296 2.94796 15.4977C2.94796 11.5942 2.94796 7.69066 2.94796 3.85114C2.94796 3.08323 3.07594 3.01925 3.77985 3.01925C7.17142 3.01925 10.499 3.01925 13.8906 3.01925C14.2105 3.01925 14.5945 2.89126 14.8505 2.76328C15.2344 2.50731 15.3624 1.99537 15.2344 1.54743C15.0424 1.03549 14.6585 0.71553 14.0186 0.71553C10.499 0.71553 6.97945 0.71553 3.45989 0.71553C3.20392 0.71553 2.94796 0.779525 2.69199 0.843517C1.41215 1.22747 0.644247 2.37932 0.644247 3.78715C0.644247 5.7709 0.644247 7.69066 0.644247 9.67441C0.644247 11.6582 0.644247 13.7059 0.644247 15.6897C0.580255 16.3296 1.0282 16.8415 1.73211 16.8415Z" fill="#838383"/>
<path d="M13.5065 65.9233C10.2429 65.9233 6.97928 65.9233 3.71569 65.9233C3.07577 65.9233 2.94779 65.7954 2.94779 65.1554C2.94779 63.2997 2.94779 61.4439 2.94779 59.5881C2.94779 57.7324 2.94779 55.8126 2.94779 53.9568C2.94779 53.2529 2.43585 52.741 1.79593 52.741C1.09202 52.741 0.580078 53.2529 0.580078 53.9568C0.580078 57.7324 0.580078 61.5719 0.580078 65.3474C0.580078 67.0752 1.85993 68.291 3.58771 68.291C5.05952 68.291 6.46734 68.291 7.93915 68.291C9.85891 68.291 11.7147 68.291 13.6344 68.291C14.4663 68.291 15.0423 67.5871 14.8503 66.8192C14.6583 66.2433 14.2104 65.9233 13.5065 65.9233Z" fill="#838383"/>
<path d="M68.2197 53.4449C68.2197 52.677 67.7077 52.1011 66.9398 52.1651C66.2999 52.1651 65.852 52.741 65.852 53.5089C65.852 57.4124 65.852 61.3159 65.852 65.1554C65.852 65.7954 65.724 65.9233 65.0841 65.9233C62.5884 65.9233 60.0927 65.9233 57.661 65.9233C57.1491 65.9233 56.7011 66.1153 56.4452 66.5633C55.9972 67.3952 56.5731 68.291 57.597 68.291C60.2207 68.291 62.7804 68.291 65.404 68.291C65.66 68.291 65.916 68.2271 66.1719 68.1631C67.4518 67.7791 68.2837 66.6273 68.2837 65.2194C68.2837 63.2997 68.2837 61.3159 68.2837 59.3962C68.2197 57.4124 68.2197 55.4287 68.2197 53.4449Z" fill="#838383"/>
<path d="M27.2007 36.871C26.6247 36.871 26.1128 37.3829 26.1128 38.0229C26.1128 38.4068 26.1128 38.7908 26.1128 39.1747C26.1128 39.5587 26.1128 39.9426 26.1128 40.3266C26.1128 41.0305 26.6247 41.5424 27.2647 41.6064C27.8406 41.6064 28.4165 41.1585 28.4805 40.5185C28.5445 39.6867 28.5445 38.7908 28.4805 37.9589C28.4165 37.255 27.8406 36.807 27.2007 36.871Z" fill="#838383"/>
<path d="M42.6228 36.871C41.9829 36.871 41.4709 37.3189 41.4709 37.9589C41.4709 38.7908 41.4709 39.6227 41.4709 40.4546C41.4709 41.0945 42.0469 41.6064 42.6228 41.6064C43.2627 41.6064 43.7747 41.0945 43.7747 40.4546C43.7747 40.0706 43.7747 39.6227 43.7747 39.2387C43.7747 38.8548 43.7747 38.4068 43.7747 38.0229C43.7107 37.3829 43.2627 36.871 42.6228 36.871Z" fill="#838383"/>
<path d="M57.5969 39.4947C57.2769 38.0229 56.509 36.871 55.1012 36.2951C54.9092 36.2311 54.7173 36.1671 54.5253 36.1031C54.5253 36.0391 54.5893 35.9751 54.5893 35.9111C55.9331 32.5196 56.829 29.064 57.085 25.4164C57.2769 22.3448 56.957 19.3372 55.8051 16.4576C53.2454 10.3143 48.638 6.41083 42.2388 4.61905C39.6791 3.85115 36.9915 3.72316 34.3678 4.17111C31.0402 4.74703 28.1606 6.28284 25.6649 8.45857C25.4729 8.58655 25.217 8.71453 25.025 8.71453C23.8091 8.90651 22.5933 8.9705 21.3774 9.29046C17.154 10.3783 14.1463 12.874 12.4826 16.9055C11.1387 20.1691 10.9467 23.6247 11.3307 27.0802C11.6507 29.8959 12.5465 32.4556 14.0184 34.8873C14.2743 35.3352 14.5943 35.8471 14.9142 36.2951C14.8502 36.3591 14.7863 36.3591 14.7223 36.4231C13.7624 36.871 13.1225 37.6389 12.7385 38.5988C12.2266 39.8146 12.2266 41.0945 12.3546 42.3743C12.5465 44.1661 13.1865 46.7898 14.8503 47.7496C15.4262 48.0696 16.1301 48.2616 16.642 48.7095C17.218 49.2215 17.4099 50.1173 17.6019 50.8853C18.9457 56.1326 22.0174 60.804 27.0087 63.1717C32.4481 65.7314 39.3592 65.4754 44.5425 62.4678C46.2703 61.5079 47.7421 60.1641 49.022 58.6283C50.1738 57.2205 51.0697 55.6207 51.7096 53.9569C52.0936 52.933 52.3496 51.9731 52.6055 50.9492C52.7975 50.0534 53.0535 49.0295 53.8854 48.5175C54.2693 48.2616 54.7173 48.1976 55.1012 48.0056C55.4852 47.8136 55.8691 47.4937 56.1891 47.1737C56.893 46.1498 57.3409 45.7019 57.6609 44.1021C57.7249 42.5023 57.9168 41.0305 57.5969 39.4947ZM13.4424 25.8004C13.3144 23.3687 13.4424 21.001 14.2103 18.6973C15.4902 14.6658 18.3058 12.3621 22.3373 11.4662C23.2972 11.2742 24.2571 11.2102 25.2809 11.1462C25.9209 11.1462 26.3688 10.9543 26.8167 10.5063C28.2246 9.16248 29.8244 8.07462 31.6801 7.3707C34.8157 6.02687 38.0793 5.96288 41.3429 6.85877C46.2063 8.13861 49.9179 10.8903 52.4775 15.2417C53.6934 17.3535 54.3973 19.6572 54.5893 22.1528C54.9092 26.1843 54.1413 30.0239 52.7975 33.7994C52.7975 33.8634 52.7335 33.9274 52.6695 34.0554C52.4135 32.5196 52.0296 31.1117 51.3897 29.7679C50.3018 27.4002 48.766 25.4804 46.3343 24.3926C45.1185 23.8806 43.8386 23.5607 42.5588 23.4967C39.8071 23.4327 37.1195 23.3047 34.4318 22.7288C32.2561 22.2808 30.1443 21.6409 28.2246 20.4251C27.3287 19.8491 26.5608 19.2092 25.9849 18.3773C25.5369 17.7374 24.833 17.5454 24.1291 17.8654C22.4013 18.5693 20.9935 19.7212 19.8416 21.193C18.3058 23.1767 17.4099 25.4164 16.898 27.8481C16.45 29.9599 16.3221 32.0716 16.3861 34.2473C16.3861 34.3753 16.3861 34.5033 16.3861 34.5673C16.3861 34.5673 16.3861 34.6313 16.3221 34.6953C16.2581 34.6313 16.1941 34.5033 16.1301 34.4393C14.5943 31.7516 13.6344 28.872 13.4424 25.8004ZM55.4212 41.7344C55.2932 42.6303 55.2292 43.5902 54.9092 44.4861L54.9732 44.4221C54.7172 44.614 54.5893 45.126 54.3333 45.3819C53.5654 46.3418 52.4135 46.7898 51.3897 47.4297C51.1977 47.5577 51.0057 47.6217 50.8777 47.8136C50.6858 48.0056 50.6218 48.3256 50.5578 48.5815C49.9818 50.9492 49.3419 53.4449 48.1261 55.6207C48.1261 55.6207 48.1261 55.6847 48.0621 55.6847C47.3582 56.8365 45.7584 58.7563 44.2226 59.8441C43.9026 60.0361 43.6466 60.2281 43.3267 60.4201C40.959 61.9559 37.6954 62.5958 34.8797 62.5958C31.8721 62.5958 28.8005 61.6999 26.2408 60.1641C24.3851 59.0762 22.9132 57.2205 21.7614 55.4287C20.7375 53.7649 20.2896 51.8451 19.8416 49.9894C19.7136 49.3494 19.5857 48.6455 19.3297 48.0056C19.0737 47.3017 18.1778 47.1737 17.6019 46.7898C16.898 46.3418 16.1941 45.9579 15.4902 45.4459C15.2982 45.19 15.0422 44.87 14.9142 44.4861C14.9142 44.4221 14.8503 44.3581 14.8503 44.3581C14.8503 44.2941 14.7863 44.1661 14.7863 43.9741C14.5303 42.6943 14.2743 41.3504 14.5943 40.0066C14.7863 39.2387 15.1062 38.5988 16.0021 38.4708C16.1941 38.4708 16.3861 38.4708 16.514 38.5988C17.09 39.0467 17.7299 39.1747 18.3058 38.8548C18.8818 38.5348 19.1377 37.8949 19.0737 37.191C18.6898 33.6074 18.6898 30.0239 19.7776 26.5683C20.4176 24.4566 21.5054 22.6008 23.2332 21.193C23.6171 20.873 24.0651 20.617 24.4491 20.3611C25.153 20.937 25.7289 21.5769 26.4328 22.0249C28.4805 23.4967 30.8482 24.3286 33.3439 24.9045C36.2236 25.5444 39.1672 25.8004 42.1108 25.8004C45.0545 25.8644 47.3582 27.0802 48.83 29.7679C49.4059 30.8558 49.8539 31.9436 50.1738 33.1595C50.5578 34.6953 50.6218 36.2311 50.6218 37.7669C50.6218 38.8548 51.7096 39.5587 52.6695 39.1747C52.9255 39.0467 53.1814 38.8548 53.3094 38.6628C53.4374 38.4708 53.6294 38.4068 53.8214 38.4708C54.4613 38.5988 54.9092 38.9827 55.1012 39.6227C55.4212 40.1986 55.4852 40.9665 55.4212 41.7344Z" fill="#838383"/>
<path d="M25.601 48.5175C25.985 48.5175 26.3689 48.7735 26.5609 49.1575C27.3288 50.8213 29.8885 55.3007 34.8799 55.3007C39.8712 55.3007 42.3029 50.6293 43.0708 48.8375C43.2628 48.4536 43.6468 48.1976 44.0307 48.1976C44.7346 48.1976 45.3106 48.9015 44.9906 49.6054C43.9667 52.1651 41.2151 57.4124 34.8159 57.4124C28.5447 57.4124 25.5371 52.549 24.3852 49.9894C24.0652 49.2855 24.5772 48.5175 25.3451 48.5175H25.601Z" fill="#838383"/>
</svg>
